<svg xmlns="http://www.w3.org/2000/svg" viewBox="0 0 800 620"><defs>
    <linearGradient id="bg" x1="0" y1="0" x2="1" y2="1"><stop stop-color="#08121b"/><stop offset=".55" stop-color="#17445c"/><stop offset="1" stop-color="#9ed9f1"/></linearGradient>
    <linearGradient id="shine" x1="0" y1="0" x2="1" y2="1"><stop stop-color="#fff" stop-opacity=".22"/><stop offset=".45" stop-color="#fff" stop-opacity="0"/><stop offset="1" stop-color="#fff" stop-opacity=".08"/></linearGradient>
    <filter id="blur"><feGaussianBlur stdDeviation="30"/></filter>
    </defs><rect width="800" height="620" rx="34" fill="url(#bg)"/><rect x="80" y="365" width="66" height="135" rx="5" fill="#fff" opacity=".08"/><rect x="88" y="383" width="50" height="105" fill="none" stroke="#fff" stroke-opacity=".16"/><rect x="175" y="366" width="66" height="134" rx="5" fill="#fff" opacity=".08"/><rect x="183" y="384" width="50" height="104" fill="none" stroke="#fff" stroke-opacity=".16"/><rect x="270" y="328" width="66" height="172" rx="5" fill="#fff" opacity=".08"/><rect x="278" y="346" width="50" height="142" fill="none" stroke="#fff" stroke-opacity=".16"/><rect x="365" y="199" width="66" height="301" rx="5" fill="#fff" opacity=".08"/><rect x="373" y="217" width="50" height="271" fill="none" stroke="#fff" stroke-opacity=".16"/><rect x="460" y="321" width="66" height="179" rx="5" fill="#fff" opacity=".08"/><rect x="468" y="339" width="50" height="149" fill="none" stroke="#fff" stroke-opacity=".16"/><rect x="555" y="184" width="66" height="316" rx="5" fill="#fff" opacity=".08"/><rect x="563" y="202" width="50" height="286" fill="none" stroke="#fff" stroke-opacity=".16"/><rect x="650" y="323" width="66" height="177" rx="5" fill="#fff" opacity=".08"/><rect x="658" y="341" width="50" height="147" fill="none" stroke="#fff" stroke-opacity=".16"/><rect x="745" y="342" width="66" height="158" rx="5" fill="#fff" opacity=".08"/><rect x="753" y="360" width="50" height="128" fill="none" stroke="#fff" stroke-opacity=".16"/><circle cx="100" cy="510" r="3" fill="#fff" opacity=".6"/><circle cx="192" cy="510" r="3" fill="#fff" opacity=".6"/><circle cx="284" cy="510" r="3" fill="#fff" opacity=".6"/><circle cx="376" cy="510" r="3" fill="#fff" opacity=".6"/><circle cx="468" cy="510" r="3" fill="#fff" opacity=".6"/><circle cx="560" cy="510" r="3" fill="#fff" opacity=".6"/><circle cx="652" cy="510" r="3" fill="#fff" opacity=".6"/><path d="M55 520 C180 430 220 470 315 395 S500 280 745 180" fill="none" stroke="#ff5b2d" stroke-width="6" opacity=".9"/><rect width="800" height="620" rx="34" fill="url(#shine)"/><text x="48" y="570" font-family="Arial, sans-serif" font-size="22" fill="#fff" opacity=".72" letter-spacing="2">DIGITAL BLUEPRINT</text></svg>