<svg xmlns="http://www.w3.org/2000/svg" viewBox="0 0 800 620"><defs>
    <linearGradient id="bg" x1="0" y1="0" x2="1" y2="1"><stop stop-color="#0b0c0d"/><stop offset=".55" stop-color="#6e767d"/><stop offset="1" stop-color="#e7e7e3"/></linearGradient>
    <linearGradient id="shine" x1="0" y1="0" x2="1" y2="1"><stop stop-color="#fff" stop-opacity=".22"/><stop offset=".45" stop-color="#fff" stop-opacity="0"/><stop offset="1" stop-color="#fff" stop-opacity=".08"/></linearGradient>
    <filter id="blur"><feGaussianBlur stdDeviation="30"/></filter>
    </defs><rect width="800" height="620" rx="34" fill="url(#bg)"/><rect x="80" y="271" width="66" height="229" rx="5" fill="#fff" opacity=".08"/><rect x="88" y="289" width="50" height="199" fill="none" stroke="#fff" stroke-opacity=".16"/><rect x="175" y="217" width="66" height="283" rx="5" fill="#fff" opacity=".08"/><rect x="183" y="235" width="50" height="253" fill="none" stroke="#fff" stroke-opacity=".16"/><rect x="270" y="355" width="66" height="145" rx="5" fill="#fff" opacity=".08"/><rect x="278" y="373" width="50" height="115" fill="none" stroke="#fff" stroke-opacity=".16"/><rect x="365" y="171" width="66" height="329" rx="5" fill="#fff" opacity=".08"/><rect x="373" y="189" width="50" height="299" fill="none" stroke="#fff" stroke-opacity=".16"/><rect x="460" y="202" width="66" height="298" rx="5" fill="#fff" opacity=".08"/><rect x="468" y="220" width="50" height="268" fill="none" stroke="#fff" stroke-opacity=".16"/><rect x="555" y="240" width="66" height="260" rx="5" fill="#fff" opacity=".08"/><rect x="563" y="258" width="50" height="230" fill="none" stroke="#fff" stroke-opacity=".16"/><rect x="650" y="177" width="66" height="323" rx="5" fill="#fff" opacity=".08"/><rect x="658" y="195" width="50" height="293" fill="none" stroke="#fff" stroke-opacity=".16"/><rect x="745" y="337" width="66" height="163" rx="5" fill="#fff" opacity=".08"/><rect x="753" y="355" width="50" height="133" fill="none" stroke="#fff" stroke-opacity=".16"/><circle cx="100" cy="510" r="3" fill="#fff" opacity=".6"/><circle cx="192" cy="510" r="3" fill="#fff" opacity=".6"/><circle cx="284" cy="510" r="3" fill="#fff" opacity=".6"/><circle cx="376" cy="510" r="3" fill="#fff" opacity=".6"/><circle cx="468" cy="510" r="3" fill="#fff" opacity=".6"/><circle cx="560" cy="510" r="3" fill="#fff" opacity=".6"/><circle cx="652" cy="510" r="3" fill="#fff" opacity=".6"/><path d="M55 520 C180 430 220 470 315 395 S500 280 745 180" fill="none" stroke="#ff5b2d" stroke-width="6" opacity=".9"/><rect width="800" height="620" rx="34" fill="url(#shine)"/><text x="48" y="570" font-family="Arial, sans-serif" font-size="22" fill="#fff" opacity=".72" letter-spacing="2">SHANAY INDUSTRIES</text></svg>